<svg xmlns="http://www.w3.org/2000/svg" viewBox="0 0 256 256" width="256" height="256">
  <defs>
    <linearGradient id="g" x1="0" y1="0" x2="1" y2="1">
      <stop offset="0" stop-color="#2563EB"/>
      <stop offset="1" stop-color="#60A5FA"/>
    </linearGradient>
  </defs>
  <rect width="256" height="256" rx="56" fill="#0B1220"/>
  <path d="M64 154c0-36 28-64 64-64s64 28 64 64-28 64-64 64-64-28-64-64z" fill="url(#g)" opacity="0.9"/>
  <path d="M84 154c0-25 19-44 44-44s44 19 44 44-19 44-44 44-44-19-44-44z" fill="#0B1220" opacity="0.85"/>
  <path d="M116 160h24c10 0 18-8 18-18v-2h-60v2c0 10 8 18 18 18z" fill="#FFFFFF" opacity="0.9"/>
</svg>
